<svg width="14" height="14" viewBox="0 0 14 14" fill="none" xmlns="http://www.w3.org/2000/svg">
<path d="M7 14C3.13401 14 0 10.866 0 7C0 3.13401 3.13401 0 7 0C10.866 0 14 3.13401 14 7C14 10.866 10.866 14 7 14Z" fill="#F0F0F0"/>
<path d="M1.16825e-05 6.99999C1.16825e-05 4.22477 1.61507 1.82683 3.95654 0.69458V13.3054C1.61507 12.1732 1.16825e-05 9.77522 1.16825e-05 6.99999Z" fill="#D80027"/>
<path d="M14 7.00012C14 9.77534 12.3849 12.1733 10.0435 13.3055V0.694702C12.3849 1.82695 14 4.22489 14 7.00012Z" fill="#D80027"/>
<path d="M5.78265 7.9131L4.56528 7.3044L5.17395 7.00006V6.39136L6.39135 7.00006L5.78265 5.78266H6.39135L7.00004 4.86963L7.60874 5.78266H8.21744L7.60874 7.00006L8.82614 6.39136V7.00006L9.43481 7.3044L8.21744 7.9131L8.52178 8.5218H7.30438V9.43483H6.69571V8.5218H5.47831L5.78265 7.9131Z" fill="#D80027"/>
</svg>
