<svg width="14" height="14" viewBox="0 0 14 14" fill="none" xmlns="http://www.w3.org/2000/svg">
<path d="M0.435425 9.43497C1.42448 12.1005 3.99028 14.0002 7.00003 14.0002C10.0098 14.0002 12.5756 12.1005 13.5646 9.43497L7.00003 8.82629L0.435425 9.43497Z" fill="#FFDA44"/>
<path d="M7.00003 0.00012207C3.99028 0.00012207 1.42448 1.89975 0.435425 4.56535L7.00003 5.17402L13.5646 4.56532C12.5756 1.89975 10.0098 0.00012207 7.00003 0.00012207Z" fill="black"/>
<path d="M0.435395 4.56531C0.154027 5.32363 0 6.14383 0 7.00008C0 7.85632 0.154027 8.67652 0.435395 9.43485H13.5646C13.846 8.67652 14 7.85632 14 7.00008C14 6.14383 13.846 5.32363 13.5646 4.56531H0.435395Z" fill="#D80027"/>
</svg>
